<?xml version="1.0" standalone="no"?>
<!DOCTYPE svg PUBLIC "-//W3C//DTD SVG 20010904//EN"
 "http://www.w3.org/TR/2001/REC-SVG-20010904/DTD/svg10.dtd">
<svg version="1.0" xmlns="http://www.w3.org/2000/svg"
 width="3160.000000pt" height="3160.000000pt" viewBox="0 0 3160.000000 3160.000000"
 preserveAspectRatio="xMidYMid meet">
<metadata>
Created by potrace 1.14, written by Peter Selinger 2001-2017
</metadata>
<g transform="translate(0.000000,3160.000000) scale(0.100000,-0.100000)"
fill="#000000" stroke="none">
<path d="M4057 17624 c-1 -1 -33 -5 -71 -9 -63 -6 -103 -11 -161 -19 -11 -2
-40 -7 -65 -10 -25 -4 -54 -10 -65 -13 -11 -3 -29 -7 -40 -9 -66 -9 -333 -96
-440 -143 -63 -28 -79 -34 -87 -33 -5 1 -8 -3 -8 -8 0 -5 -6 -10 -13 -10 -29
0 -314 -172 -412 -249 -22 -17 -47 -37 -56 -44 -121 -91 -330 -300 -419 -417
-44 -58 -80 -105 -88 -115 -4 -5 -19 -28 -32 -50 -13 -22 -28 -41 -32 -43 -4
-2 -8 -10 -8 -18 0 -8 -5 -14 -12 -14 -6 0 -8 -3 -5 -7 4 -3 1 -13 -7 -22 -15
-18 -65 -107 -109 -195 -61 -124 -163 -401 -181 -496 -35 -182 -35 -181 -126
-250 -18 -14 -39 -31 -46 -37 -7 -7 -17 -13 -23 -13 -6 0 -11 -7 -11 -15 0 -8
-5 -15 -11 -15 -15 0 -61 -43 -229 -210 -232 -231 -379 -452 -449 -671 -28
-88 -32 -111 -36 -214 -9 -199 57 -355 209 -498 28 -27 63 -56 79 -65 15 -9
27 -20 27 -25 0 -4 4 -6 8 -3 5 3 18 -2 28 -12 76 -69 399 -176 624 -207 25
-3 56 -8 70 -10 69 -11 243 -23 343 -24 l68 -1 97 -102 c53 -55 102 -105 107
-110 6 -4 30 -26 55 -49 100 -90 425 -319 454 -319 3 0 27 -13 53 -28 59 -34
238 -113 323 -142 19 -7 44 -16 55 -20 22 -10 154 -47 195 -56 14 -3 41 -9 60
-14 46 -12 205 -37 300 -47 85 -9 404 -9 495 0 69 7 118 14 195 28 30 6 69 13
85 15 28 5 71 16 191 49 112 31 286 101 432 173 83 42 152 79 152 84 0 4 5 8
11 8 5 0 37 18 69 40 32 22 63 40 69 40 5 0 11 3 13 8 2 4 30 27 63 52 161
120 403 354 468 454 10 15 26 35 35 44 17 17 129 183 170 252 43 72 121 236
126 264 6 33 -13 84 -40 107 -26 21 -90 38 -122 33 -39 -7 -68 -39 -104 -113
-148 -306 -398 -612 -663 -811 -33 -25 -62 -47 -65 -50 -3 -3 -27 -20 -55 -38
-27 -17 -59 -39 -70 -47 -10 -8 -25 -15 -32 -15 -7 0 -13 -4 -13 -9 0 -5 -8
-11 -17 -14 -10 -3 -49 -23 -88 -44 -69 -38 -249 -118 -290 -129 -5 -1 -36
-12 -67 -23 -32 -11 -58 -17 -58 -14 0 3 -7 0 -15 -7 -8 -7 -15 -9 -15 -6 0 4
-8 2 -17 -3 -10 -5 -36 -12 -58 -16 -22 -4 -44 -8 -50 -9 -145 -38 -241 -48
-485 -49 -176 -1 -268 5 -340 19 -14 3 -35 7 -47 9 -26 4 -105 18 -113 20 -3
1 -18 5 -35 9 -62 16 -141 38 -170 49 -16 6 -34 12 -40 13 -21 4 -173 67 -245
102 -124 60 -297 165 -385 235 -109 85 -221 186 -208 188 45 5 78 8 133 13 36
3 83 8 105 10 22 3 65 7 95 10 30 4 80 10 110 16 30 5 73 12 95 15 23 3 52 8
65 11 14 3 39 7 55 9 17 3 41 7 55 10 14 3 48 9 75 15 28 5 61 12 75 14 14 2
48 10 75 16 28 6 61 14 75 16 14 3 57 14 95 24 39 10 86 22 104 25 19 3 43 10
53 16 11 6 22 8 25 5 3 -3 14 -1 24 5 25 13 25 -2 0 -50 -11 -20 -33 -67 -51
-106 -17 -38 -36 -77 -41 -85 -5 -8 -14 -26 -19 -40 -6 -14 -14 -34 -19 -45
-29 -67 -30 -74 -18 -117 10 -36 23 -50 56 -67 45 -23 100 -20 138 7 28 20
101 142 85 142 -4 0 -2 4 3 8 9 6 45 76 45 87 0 3 15 35 34 73 54 106 136 282
136 293 0 5 5 9 12 9 6 0 9 3 5 6 -3 3 4 24 15 45 39 75 20 152 -45 182 -18 8
-66 31 -107 50 -41 19 -172 79 -290 135 -253 117 -279 128 -305 127 -88 -2
-147 -103 -111 -189 14 -33 28 -43 143 -97 70 -34 134 -62 141 -62 6 0 12 -3
12 -7 0 -3 20 -14 45 -24 25 -11 45 -23 45 -28 0 -4 -3 -7 -7 -6 -9 2 -99 -16
-105 -22 -2 -1 -10 -3 -18 -5 -8 -1 -33 -7 -55 -13 -22 -6 -52 -14 -67 -17
-40 -7 -111 -23 -133 -29 -28 -7 -80 -18 -160 -33 -16 -3 -34 -6 -40 -8 -16
-3 -78 -15 -105 -19 -14 -2 -52 -9 -85 -15 -33 -6 -82 -13 -110 -16 -27 -4
-63 -8 -80 -11 -16 -2 -50 -6 -75 -8 -25 -3 -65 -7 -90 -10 -66 -8 -197 -18
-260 -20 -49 -2 -58 1 -82 28 -16 17 -28 36 -28 42 0 7 -4 14 -9 16 -10 4
-121 174 -121 187 0 5 -7 14 -15 21 -9 7 -13 15 -11 18 3 3 -3 17 -13 31 -71
103 -201 481 -226 656 -3 23 -8 52 -10 65 -27 134 -27 532 -1 680 24 133 51
250 58 250 5 0 7 4 3 10 -3 5 1 25 9 45 9 20 15 39 14 43 -3 9 67 189 105 272
64 139 222 396 277 450 3 3 23 28 45 55 90 112 302 310 419 390 61 42 74 51
117 80 60 39 314 169 364 185 22 7 45 16 50 20 6 5 30 14 55 21 56 16 52 15
70 22 8 4 26 9 40 11 14 3 26 5 28 7 1 1 5 2 10 3 4 2 25 7 47 14 22 6 52 13
68 16 15 3 53 10 85 15 31 6 71 13 87 16 90 17 363 23 505 11 91 -8 100 -9
170 -20 25 -4 52 -8 60 -9 8 -2 21 -6 28 -10 6 -5 12 -6 12 -3 0 2 28 -2 63
-11 34 -8 69 -16 77 -18 71 -15 283 -95 371 -140 26 -13 49 -22 51 -19 3 2 11
-2 18 -11 7 -8 16 -15 21 -15 5 0 39 -18 75 -40 36 -22 68 -40 70 -40 5 0 65
-41 74 -50 3 -3 30 -22 60 -42 30 -21 71 -53 90 -73 18 -19 38 -35 44 -35 18
0 296 -291 296 -310 0 -5 3 -10 8 -12 20 -9 172 -230 217 -316 15 -29 31 -55
36 -58 5 -3 7 -10 4 -15 -4 -5 -3 -9 2 -9 4 0 14 -14 22 -30 18 -41 77 -80
121 -80 64 0 120 57 125 125 1 19 -15 65 -45 125 -26 52 -49 100 -51 105 -1 6
-8 15 -15 22 -6 7 -29 41 -50 77 -21 36 -42 66 -46 66 -4 0 -8 6 -8 14 0 8 -4
16 -8 18 -4 2 -27 31 -51 66 -24 34 -48 62 -52 62 -5 0 -9 4 -9 10 0 10 -27
45 -72 91 -16 15 -28 30 -28 33 0 5 323 -2 385 -9 22 -2 63 -7 90 -10 238 -26
511 -116 614 -200 75 -62 114 -107 146 -169 34 -65 69 -108 92 -113 50 -10 66
-9 103 9 54 27 89 99 67 136 -5 6 -6 12 -3 12 10 0 -31 85 -67 140 -40 63
-116 144 -167 180 -19 13 -37 27 -40 31 -12 15 -152 87 -227 117 -89 35 -233
76 -323 92 -206 37 -279 42 -645 44 l-310 2 -90 65 c-84 61 -156 107 -233 150
-70 40 -137 73 -144 71 -5 -1 -8 3 -8 8 0 6 -3 9 -7 8 -5 -1 -30 9 -58 21 -90
40 -110 48 -145 61 -19 7 -44 16 -55 20 -22 10 -125 43 -140 46 -5 1 -48 12
-95 24 -47 12 -94 23 -105 24 -19 3 -50 8 -120 22 -93 17 -230 27 -393 28 -84
1 -154 1 -155 0z m-2383 -2629 c7 -161 10 -207 20 -270 4 -22 9 -55 11 -72 3
-18 10 -52 16 -75 5 -24 12 -52 13 -63 6 -39 67 -255 85 -300 5 -11 17 -40 27
-65 52 -132 150 -331 168 -342 6 -4 7 -8 2 -8 -5 0 -2 -8 6 -17 16 -19 58 -91
58 -99 0 -3 -3 -3 -7 -1 -5 3 -50 8 -102 11 -52 4 -97 8 -100 10 -3 2 -28 6
-56 10 -67 8 -99 14 -170 33 -33 8 -69 17 -80 19 -25 5 -117 40 -175 67 -77
36 -177 106 -219 153 -37 42 -80 117 -85 146 -1 7 -4 18 -7 23 -7 11 -4 146 4
185 8 41 19 84 26 95 3 6 6 15 7 22 6 41 119 229 203 338 45 59 340 360 346
353 1 -1 6 -70 9 -153z"/>
<path d="M14705 16662 c-195 -20 -359 -157 -400 -337 -12 -52 -13 -158 -1
-210 35 -153 173 -282 346 -322 33 -8 187 -9 227 -1 178 34 317 163 356 333
19 81 11 211 -14 242 -6 7 -9 13 -5 13 15 0 -53 106 -95 147 -102 100 -259
151 -414 135z"/>
<path d="M26474 16572 l-20 -3 0 -1462 1 -1461 440 -1 c242 -1 445 1 450 2 7
2 10 48 10 119 0 64 3 118 7 121 5 2 5 10 1 16 -4 7 -8 116 -8 243 0 179 3
230 12 227 7 -3 11 -8 10 -11 -1 -7 38 -89 242 -502 l106 -215 470 0 c259 0
480 1 492 3 20 4 18 11 -43 126 -35 66 -81 155 -101 196 -21 41 -40 77 -43 80
-3 3 -19 32 -36 65 -32 62 -108 206 -174 330 -20 39 -70 133 -110 209 l-73
139 28 51 c16 28 31 53 34 56 3 3 12 15 19 28 27 49 37 66 45 76 24 30 247
398 247 406 0 6 5 10 10 10 6 0 10 7 10 15 0 8 5 15 10 15 6 0 10 4 10 9 0 5
32 59 70 120 39 62 70 115 70 120 0 4 -203 7 -451 7 l-451 -1 -17 -25 c-10
-14 -34 -54 -53 -90 -20 -36 -52 -94 -72 -128 -20 -35 -36 -68 -36 -73 0 -5
-4 -9 -8 -9 -4 0 -15 -15 -23 -32 -20 -44 -91 -172 -98 -178 -3 -3 -17 -29
-31 -57 -14 -29 -28 -53 -32 -53 -5 0 -8 -6 -8 -14 0 -7 -6 -18 -12 -24 -10
-8 -13 -1 -13 29 -1 21 4 39 10 39 7 0 7 3 0 8 -14 10 -14 295 0 304 6 5 6 8
0 8 -14 0 -14 580 0 580 7 0 7 3 0 8 -14 10 -14 425 0 434 7 5 7 8 -1 8 -7 0
-10 24 -9 65 1 36 -1 65 -4 66 -16 3 -859 4 -877 1z"/>
<path d="M9871 16460 c-5 -4 -7 -672 -2 -780 l1 -25 339 2 339 2 0 -1001 c0
-675 3 -1002 10 -1007 8 -5 1019 -7 1042 -2 3 1 5 453 5 1006 l0 1004 333 0
c183 -1 337 2 340 6 4 4 7 184 7 401 1 349 -1 394 -15 395 -65 4 -2393 3
-2399 -1z"/>
<path d="M17981 16462 c-4 -1 -2 -28 5 -60 20 -83 65 -274 69 -297 4 -19 17
-74 20 -85 10 -35 59 -247 61 -260 0 -8 13 -62 27 -120 14 -58 28 -116 31
-130 19 -85 26 -116 51 -220 15 -63 29 -126 31 -139 3 -13 21 -90 40 -170 19
-80 44 -189 55 -241 12 -52 24 -102 26 -110 2 -8 4 -15 4 -15 0 0 4 -18 10
-40 12 -50 24 -100 34 -147 2 -13 7 -35 11 -50 3 -15 5 -30 5 -33 0 -2 5 -19
10 -37 6 -18 12 -44 15 -58 3 -14 10 -43 16 -65 5 -22 12 -49 14 -60 3 -21 29
-135 69 -300 13 -55 27 -116 30 -135 3 -19 8 -37 11 -39 3 -3 245 -5 539 -6
l535 0 6 30 c4 17 8 39 10 50 1 11 10 52 19 90 9 39 19 81 22 95 3 14 6 30 7
35 4 14 16 75 21 100 2 11 4 20 5 20 1 0 3 7 5 15 1 8 8 42 15 75 7 33 14 67
15 75 2 8 4 15 5 15 1 0 3 11 5 25 3 23 19 95 32 145 3 11 5 28 5 37 -1 10 4
20 9 23 5 4 7 10 4 14 -2 5 0 23 6 42 5 19 12 49 15 68 9 52 13 71 19 91 8 24
15 59 20 90 5 30 13 65 15 65 1 0 3 9 4 20 5 36 27 140 33 155 3 8 8 28 10 45
9 61 19 52 37 -33 10 -48 20 -94 24 -102 3 -8 4 -19 3 -24 -1 -4 3 -24 10 -43
6 -19 12 -44 14 -56 2 -12 6 -33 9 -47 3 -14 8 -36 11 -50 3 -14 8 -36 11 -50
3 -14 7 -34 9 -45 7 -35 14 -69 24 -110 20 -81 24 -100 26 -120 2 -11 13 -60
25 -110 23 -96 27 -116 35 -155 3 -14 12 -56 20 -95 9 -38 18 -80 20 -93 5
-24 10 -45 25 -112 5 -25 11 -55 14 -66 2 -12 9 -38 14 -58 6 -20 7 -36 4 -37
-4 0 1 -3 10 -7 13 -5 971 -8 999 -3 4 1 12 29 19 64 15 71 13 60 35 152 9 39
18 77 20 85 2 8 9 38 15 65 7 28 14 59 15 70 2 11 4 21 5 23 3 3 8 23 35 147
2 11 8 35 14 53 5 18 10 35 10 37 1 3 1 6 2 8 0 1 2 11 4 22 1 11 8 43 15 70
6 28 14 63 17 79 2 16 9 40 14 53 5 13 9 35 9 49 0 13 5 24 11 24 5 0 8 4 5 8
-4 7 24 141 51 247 3 11 6 28 6 38 1 9 5 17 10 17 4 0 6 4 3 8 -3 5 -1 26 5
47 6 20 12 45 14 54 7 29 84 365 91 394 2 9 6 26 9 38 2 11 6 28 9 37 3 9 7
28 10 42 8 41 15 71 20 88 3 9 8 31 11 47 5 31 7 39 26 115 15 62 18 76 24
103 2 12 9 40 15 62 16 62 61 257 66 285 2 14 10 48 16 75 7 28 13 53 14 58 1
4 2 8 4 10 8 10 6 36 -3 39 -22 7 -942 2 -954 -5 -6 -4 -14 -30 -18 -59 -4
-29 -8 -60 -10 -68 -1 -8 -5 -31 -9 -50 -3 -19 -8 -46 -11 -60 -3 -14 -10 -52
-15 -85 -5 -33 -12 -71 -15 -85 -3 -14 -8 -38 -10 -55 -3 -16 -9 -52 -15 -80
-6 -27 -12 -63 -14 -80 -7 -50 -17 -105 -32 -175 -2 -14 -7 -43 -10 -65 -2
-22 -11 -74 -20 -115 -8 -41 -17 -88 -19 -105 -2 -16 -4 -30 -5 -30 -1 0 -4
-13 -6 -30 -2 -16 -7 -41 -11 -55 -3 -14 -7 -34 -8 -45 -2 -19 -8 -55 -20
-117 -3 -16 -7 -40 -10 -55 -3 -16 -8 -44 -11 -63 -7 -41 -12 -63 -14 -70 -1
-3 -6 11 -10 30 -5 19 -11 49 -15 65 -4 17 -8 39 -10 50 -2 11 -6 29 -8 40 -7
28 -35 162 -42 205 -4 19 -8 40 -9 45 -2 6 -6 28 -10 50 -5 22 -14 60 -20 85
-7 25 -12 55 -11 68 1 12 -1 22 -5 22 -4 0 -7 6 -7 13 0 6 -13 71 -28 142 -34
163 -36 175 -40 205 -2 14 -4 25 -5 25 -1 0 -3 7 -5 15 -2 8 -6 29 -10 45 -3
17 -8 40 -10 52 -2 11 -6 29 -9 40 -3 10 -8 36 -12 58 -3 22 -8 43 -10 46 -2
4 -6 24 -10 45 -3 22 -9 55 -14 74 -5 19 -11 53 -15 75 -3 22 -10 44 -15 49
-15 15 -860 14 -876 -1 -6 -7 -15 -36 -19 -65 -4 -29 -8 -60 -10 -68 -8 -37
-16 -84 -39 -225 -8 -49 -22 -128 -31 -175 -9 -47 -17 -98 -19 -115 -2 -16 -9
-59 -15 -95 -7 -36 -14 -78 -17 -95 -3 -16 -11 -66 -19 -110 -8 -44 -16 -93
-19 -110 -3 -16 -7 -41 -10 -55 -3 -14 -7 -43 -10 -65 -4 -22 -8 -51 -11 -65
-13 -70 -16 -87 -20 -115 -4 -30 -17 -104 -21 -117 -1 -5 -2 -18 -3 -30 -2
-31 -10 -18 -16 28 -4 21 -9 50 -11 64 -5 24 -10 52 -18 110 -2 14 -11 66 -21
115 -9 50 -18 104 -19 120 -2 17 -13 84 -25 150 -11 66 -23 138 -26 160 -3 22
-8 46 -11 53 -2 8 -7 37 -10 65 -7 54 -11 82 -14 82 -1 0 -3 11 -5 25 -9 64
-15 97 -19 120 -3 14 -7 41 -10 60 -3 19 -7 44 -9 55 -8 38 -17 90 -22 130
-20 135 -27 165 -38 172 -11 7 -1016 12 -1036 5z"/>
<path d="M5058 15964 c-2 -2 -19 -6 -38 -9 -19 -3 -43 -8 -52 -11 -9 -3 -27
-7 -40 -9 -13 -3 -56 -21 -96 -42 -86 -43 -122 -86 -122 -147 0 -50 17 -74
170 -235 63 -67 222 -238 301 -324 30 -33 73 -79 97 -104 23 -24 42 -46 42
-48 0 -2 -52 -34 -115 -72 -64 -37 -128 -76 -143 -85 -15 -10 -34 -21 -42 -25
-8 -3 -27 -14 -41 -24 -21 -15 -50 -19 -148 -21 -66 -2 -121 -7 -121 -11 0 -4
-8 -3 -19 2 -10 6 -20 8 -23 6 -2 -3 -78 -7 -169 -10 -612 -18 -608 -17 -643
-40 -13 -9 -32 -37 -43 -63 -16 -38 -18 -53 -9 -79 14 -40 43 -75 76 -90 14
-6 63 -29 110 -51 47 -22 216 -99 375 -172 334 -153 390 -178 483 -222 91 -42
130 -43 216 -3 39 17 94 42 121 55 28 12 87 40 133 61 46 22 85 39 87 39 2 0
45 20 97 44 51 24 116 53 143 66 28 12 77 35 110 50 33 15 87 40 120 56 33 15
62 28 65 29 14 4 69 30 285 130 44 20 85 37 90 38 6 1 12 4 15 7 3 3 34 19 70
34 36 16 99 45 140 64 41 20 77 36 80 37 6 1 81 35 160 73 30 14 57 27 60 27
8 3 71 31 175 80 53 25 99 45 101 45 2 0 36 16 75 35 40 19 78 35 84 35 7 0
18 7 25 15 7 8 19 15 26 15 21 0 355 164 428 210 153 97 210 224 162 359 -18
49 -75 130 -92 131 -5 0 -20 9 -32 20 -12 11 -28 20 -37 20 -8 0 -15 4 -15 8
0 6 -78 35 -100 37 -3 0 -10 4 -16 7 -6 4 -32 9 -58 10 -25 2 -46 5 -46 8 0 7
-14 8 -145 10 -154 3 -178 -3 -340 -81 -49 -24 -92 -43 -95 -44 -3 0 -45 -20
-93 -43 -49 -23 -91 -42 -94 -42 -2 0 -36 -16 -74 -35 -38 -19 -69 -31 -69
-27 0 4 -4 2 -8 -3 -4 -6 -47 -29 -97 -50 -49 -22 -123 -56 -165 -76 l-75 -36
-29 21 c-15 11 -35 26 -45 31 -9 6 -18 13 -21 16 -9 11 -183 122 -255 164
-151 87 -365 181 -455 200 -8 2 -37 9 -65 15 -27 6 -63 14 -80 16 -36 6 -253
13 -257 8z m275 -288 c26 -8 47 -13 47 -11 0 2 24 -6 53 -16 28 -11 59 -22 67
-24 40 -9 302 -143 308 -157 2 -5 9 -8 15 -8 7 0 25 -11 41 -25 16 -14 35 -25
43 -25 7 0 13 -4 13 -8 0 -5 12 -15 27 -23 15 -8 34 -20 43 -27 8 -7 44 -35
80 -63 36 -27 70 -53 75 -57 36 -30 111 -33 151 -7 11 7 29 15 40 17 10 2 22
7 25 11 3 5 12 10 20 11 13 2 80 33 209 94 30 15 57 27 60 27 3 1 28 12 55 24
28 13 75 35 105 48 81 36 127 57 200 91 254 118 258 119 355 117 87 -3 152
-13 222 -36 113 -37 96 -62 -104 -160 -78 -38 -145 -69 -147 -69 -3 0 -44 -18
-93 -41 -192 -89 -235 -109 -238 -109 -2 0 -56 -25 -121 -56 -65 -31 -123 -57
-128 -59 -6 -1 -55 -23 -110 -48 -54 -26 -100 -47 -101 -47 -2 0 -45 -20 -97
-44 -51 -24 -115 -53 -143 -66 -64 -29 -254 -115 -325 -147 -30 -14 -98 -44
-150 -68 -52 -24 -126 -57 -165 -75 -74 -34 -138 -63 -232 -106 -128 -58 -189
-86 -216 -100 -16 -8 -35 -14 -43 -14 -8 0 -14 -4 -14 -10 0 -5 -5 -10 -11
-10 -9 0 -61 -22 -156 -67 -28 -13 -35 -13 -62 1 -17 9 -33 16 -36 17 -8 0
-68 26 -296 130 -47 21 -92 39 -99 39 -7 0 -10 3 -6 7 8 8 3 8 291 18 142 4
219 11 240 20 42 19 107 57 123 73 7 6 20 12 28 12 8 0 14 4 14 9 0 5 25 22
55 37 30 16 55 31 55 35 0 4 8 9 18 12 9 3 60 33 112 67 52 33 104 64 115 69
49 22 99 108 88 152 -7 29 -36 69 -94 130 -24 25 -102 108 -174 184 -119 127
-174 185 -277 293 -21 22 -38 44 -38 51 0 16 223 6 283 -13z"/>
<path d="M16927 15763 c-3 -2 -15 -6 -28 -8 -60 -11 -84 -18 -118 -33 -20 -9
-39 -16 -42 -16 -3 -1 -33 -18 -66 -38 -52 -32 -80 -58 -175 -159 -10 -11 -18
-21 -18 -24 1 -3 -9 -18 -20 -32 l-21 -27 1 54 c0 30 0 94 0 141 l0 85 -450 0
c-313 0 -450 -3 -451 -10 -5 -57 -3 -2714 2 -2721 5 -6 166 -10 451 -9 l443 0
2 125 c2 68 3 284 3 479 1 355 1 355 20 319 10 -19 26 -41 34 -48 9 -8 16 -19
17 -25 0 -16 110 -106 167 -138 52 -29 144 -62 207 -74 69 -13 340 -9 340 6 0
1 9 3 20 4 40 6 104 27 110 36 3 6 13 10 21 10 28 0 148 79 210 137 88 84 159
183 193 273 8 19 20 49 27 65 24 57 49 149 59 216 2 19 9 61 14 94 10 63 8
428 -3 480 -3 17 -9 46 -12 65 -6 37 -11 62 -18 95 -10 47 -60 184 -88 240
-108 215 -293 367 -517 422 -59 15 -303 27 -314 16z m-115 -681 c68 -30 126
-106 144 -191 24 -115 22 -329 -5 -416 -25 -81 -79 -148 -147 -180 -51 -24
-166 -28 -216 -6 -119 52 -171 172 -171 391 0 229 47 345 163 402 46 22 65 26
122 23 37 -2 87 -12 110 -23z"/>
<path d="M23107 15764 c-2 -2 -19 -6 -38 -8 -144 -20 -268 -56 -394 -117 -105
-51 -127 -63 -159 -91 -11 -10 -23 -18 -28 -18 -14 0 -173 -163 -214 -220 -90
-124 -158 -299 -180 -460 -12 -85 -8 -348 5 -415 13 -64 46 -177 61 -210 5
-11 16 -36 24 -55 77 -177 272 -365 470 -455 67 -30 187 -71 229 -79 15 -2 35
-7 45 -10 19 -6 54 -12 122 -23 54 -9 377 -8 437 1 145 21 352 89 445 146 27
17 51 30 54 30 25 0 264 219 264 241 0 4 7 14 14 22 8 8 24 31 35 51 12 20 31
53 42 74 26 45 76 189 89 254 29 150 31 357 5 508 -6 37 -40 152 -54 185 -28
65 -86 173 -102 191 -10 11 -19 23 -19 27 0 13 -124 138 -185 187 -54 43 -236
148 -267 154 -7 2 -21 6 -30 9 -10 4 -26 10 -35 14 -10 3 -23 7 -30 9 -6 1
-27 7 -45 12 -18 6 -58 15 -88 21 -30 6 -71 13 -90 17 -37 7 -377 14 -383 8z
m263 -667 c104 -43 158 -143 166 -306 2 -40 6 -76 8 -79 3 -2 1 -13 -4 -23 -7
-11 -7 -20 0 -24 5 -3 7 -11 5 -18 -3 -7 -7 -41 -9 -77 -8 -119 -42 -214 -95
-264 -59 -57 -175 -76 -269 -45 -92 30 -153 135 -168 289 -17 185 1 355 48
444 21 39 74 84 118 100 50 17 160 19 200 3z"/>
<path d="M29568 15765 c-2 -2 -30 -7 -63 -10 -69 -8 -72 -9 -140 -25 -121 -29
-289 -103 -355 -156 -141 -114 -221 -248 -246 -414 -12 -79 -8 -209 8 -293 30
-152 105 -260 228 -330 30 -18 57 -32 60 -33 5 -1 47 -17 80 -31 8 -3 19 -5
24 -4 4 1 14 -3 21 -9 7 -6 17 -10 21 -8 5 1 41 -6 79 -15 39 -9 93 -19 120
-22 28 -4 61 -8 75 -10 14 -2 50 -7 80 -11 175 -20 200 -25 257 -46 151 -56
110 -198 -58 -200 -104 -2 -154 35 -182 134 l-13 42 -399 1 c-220 0 -405 -1
-411 -3 -6 -2 -10 -18 -8 -37 4 -58 15 -128 20 -137 3 -5 8 -21 10 -36 7 -40
62 -151 98 -197 29 -37 114 -125 121 -125 2 0 25 -15 53 -34 74 -50 274 -127
347 -135 3 0 20 -3 38 -6 17 -3 52 -8 77 -12 57 -8 450 -8 509 0 98 14 119 18
149 27 18 5 32 6 32 3 0 -3 7 0 15 7 8 7 15 10 15 6 0 -8 136 42 205 77 50 25
129 81 170 122 58 57 145 204 145 246 0 8 5 20 12 27 7 7 9 12 6 12 -3 0 0 27
7 59 21 101 10 334 -18 369 -5 6 -7 12 -4 12 19 0 -69 152 -102 176 -9 7 -29
24 -46 38 -62 54 -209 115 -355 147 -96 21 -103 23 -180 34 -25 3 -58 8 -75
11 -16 2 -55 6 -85 9 -115 11 -204 26 -215 35 -7 5 -14 7 -17 4 -3 -3 -22 11
-42 30 -32 30 -37 39 -34 75 4 75 70 109 183 95 51 -6 99 -47 121 -105 9 -24
19 -46 21 -49 3 -3 185 -5 405 -6 l400 0 -7 55 c-24 211 -121 382 -270 480
-99 64 -142 84 -245 113 -93 25 -111 29 -255 48 -56 7 -381 11 -387 5z"/>
<path d="M13929 15726 c-2 -2 -22 -6 -44 -9 -61 -8 -76 -13 -148 -45 -76 -35
-80 -38 -157 -112 -59 -58 -115 -137 -145 -207 -11 -24 -22 -43 -27 -43 -4 0
-7 78 -7 173 0 94 0 177 -1 182 -1 6 -2 17 -1 26 1 14 -45 15 -449 15 l-450 0
-1 -35 c0 -20 -1 -483 -2 -1028 -1 -656 1 -993 8 -994 47 -6 874 -3 885 2 11
5 15 20 14 51 -2 24 -3 43 -4 43 -6 0 -7 36 -1 40 9 5 7 72 -2 81 -3 4 -2 16
2 28 6 17 7 91 1 91 -6 0 -7 36 -1 40 9 5 7 72 -2 81 -3 4 -2 16 2 28 6 17 7
91 1 91 -6 0 -7 36 -1 40 9 5 7 72 -2 81 -3 4 -2 16 2 28 9 25 7 78 -3 94 -4
7 -4 17 -1 23 4 6 8 41 10 78 3 68 8 83 54 155 24 37 129 116 155 116 7 0 16
3 20 7 3 4 12 8 19 9 7 1 33 7 60 13 86 20 121 23 235 24 l113 0 -2 86 c0 47
0 91 1 96 1 6 2 15 0 20 -2 13 -2 208 0 220 1 6 2 15 0 20 -2 13 -2 208 0 220
1 6 1 15 0 20 -1 6 -1 43 -1 83 l1 72 -63 0 c-35 0 -66 -2 -68 -4z"/>
<path d="M26037 15715 c-32 -6 -60 -12 -62 -14 -3 -1 -13 -4 -22 -7 -76 -22
-201 -109 -248 -171 -16 -21 -35 -44 -42 -51 -7 -7 -13 -17 -13 -22 0 -5 -6
-15 -13 -22 -7 -7 -26 -42 -43 -78 l-31 -64 1 203 c1 111 -1 206 -4 210 -3 5
-205 8 -450 7 l-445 -1 -3 -1030 -2 -1030 450 0 c247 0 450 2 451 5 0 3 2 219
3 480 2 493 3 515 45 580 31 49 98 101 166 130 25 11 46 19 48 19 1 -1 21 4
44 10 57 15 127 23 248 26 55 1 102 3 105 4 4 1 4 701 1 814 -1 16 -9 18 -63
16 -35 -1 -89 -7 -121 -14z"/>
<path d="M14318 15668 c-2 -21 0 -45 5 -53 4 -8 4 -15 0 -15 -9 0 -8 -133 1
-156 3 -8 2 -14 -2 -14 -4 0 -7 -58 -7 -130 0 -71 3 -130 7 -130 4 0 4 -10 0
-22 -4 -13 -7 -50 -6 -83 1 -33 3 -73 3 -90 1 -16 1 -72 0 -123 -1 -51 1 -95
4 -98 3 -3 3 -16 -1 -28 -4 -11 -6 -34 -5 -51 4 -34 4 -31 2 -148 -1 -48 1
-90 4 -93 3 -3 3 -16 -1 -28 -4 -11 -6 -34 -5 -51 4 -34 4 -31 2 -148 -1 -48
1 -90 4 -93 3 -3 3 -16 -1 -28 -4 -11 -6 -34 -5 -51 2 -16 3 -37 3 -45 0 -8 0
-55 -1 -105 0 -49 0 -92 1 -95 2 -3 1 -9 0 -15 -7 -26 0 -119 8 -124 6 -3 207
-6 449 -6 l438 0 0 1030 0 1030 -447 1 -446 0 -4 -38z"/>
</g>
</svg>
